<svg xmlns="http://www.w3.org/2000/svg" viewBox="0 0 1280 920" role="img" aria-labelledby="title desc">
  <title id="title">RetroZetro hero collage</title>
  <desc id="desc">A neon collage of the four RetroZetro leads above a glowing city.</desc>
  <defs>
    <linearGradient id="bg" x1="0%" x2="100%" y1="0%" y2="100%">
      <stop offset="0%" stop-color="#07111f" />
      <stop offset="55%" stop-color="#142845" />
      <stop offset="100%" stop-color="#2b1437" />
    </linearGradient>
    <linearGradient id="sun" x1="0%" x2="0%" y1="0%" y2="100%">
      <stop offset="0%" stop-color="#ffd27d" />
      <stop offset="100%" stop-color="#ff8f57" />
    </linearGradient>
  </defs>
  <rect width="1280" height="920" fill="url(#bg)" />
  <circle cx="950" cy="180" r="170" fill="url(#sun)" opacity=".95" />
  <g opacity=".16" stroke="#7de3f6" stroke-width="4">
    <path d="M0 302h1280" />
    <path d="M0 362h1280" />
    <path d="M0 422h1280" />
    <path d="M0 482h1280" />
    <path d="M0 542h1280" />
    <path d="M0 602h1280" />
  </g>
  <g opacity=".28" stroke="#7de3f6" stroke-width="2">
    <path d="M140 0v920" />
    <path d="M280 0v920" />
    <path d="M420 0v920" />
    <path d="M560 0v920" />
    <path d="M700 0v920" />
    <path d="M840 0v920" />
    <path d="M980 0v920" />
    <path d="M1120 0v920" />
  </g>
  <path d="M0 660c176-69 309-85 399-49 89 36 169 36 239 0 78-40 176-39 292 5 110 42 227 53 350 31V920H0z" fill="#050c17" />
  <g fill="#0f2137">
    <path d="M46 703h120v217H46z" />
    <path d="M191 650h112v270H191z" />
    <path d="M343 588h128v332H343z" />
    <path d="M507 624h96v296h-96z" />
    <path d="M640 557h146v363H640z" />
    <path d="M828 610h116v310H828z" />
    <path d="M986 532h121v388H986z" />
    <path d="M1141 644h91v276h-91z" />
  </g>
  <g>
    <rect x="118" y="528" width="228" height="282" rx="32" fill="#12263d" stroke="#ffd27d" stroke-width="10" />
    <circle cx="232" cy="606" r="64" fill="#ff8f57" />
    <path d="M176 728c12-74 41-118 92-118 49 0 79 44 93 118" fill="#07111f" stroke="#ffd27d" stroke-width="10" />
    <path d="M154 738h161" stroke="#7de3f6" stroke-linecap="round" stroke-width="8" />
    <text x="232" y="784" fill="#ffd27d" font-family="Verdana, sans-serif" font-size="26" font-weight="700" text-anchor="middle">ZETRO</text>
  </g>
  <g>
    <rect x="374" y="468" width="240" height="320" rx="34" fill="#1b1530" stroke="#7de3f6" stroke-width="10" />
    <circle cx="495" cy="548" r="70" fill="#7de3f6" />
    <path d="M423 710c13-85 46-132 106-132 57 0 91 47 106 132" fill="#07111f" stroke="#ff8f57" stroke-width="10" />
    <path d="M420 643c33 16 59 24 75 24 17 0 44-8 83-24" fill="none" stroke="#ffcf7b" stroke-linecap="round" stroke-width="10" />
    <text x="495" y="760" fill="#7de3f6" font-family="Verdana, sans-serif" font-size="26" font-weight="700" text-anchor="middle">KAZAY</text>
  </g>
  <g>
    <rect x="662" y="394" width="252" height="356" rx="36" fill="#0d1d31" stroke="#ff8f57" stroke-width="10" />
    <circle cx="788" cy="486" r="74" fill="#c6f2ff" />
    <path d="M704 688c17-98 50-149 111-149 60 0 93 51 109 149" fill="#07111f" stroke="#7de3f6" stroke-width="10" />
    <path d="M738 391l42-54 62 0 42 54" fill="none" stroke="#ffd27d" stroke-linecap="round" stroke-width="12" />
    <text x="788" y="718" fill="#ffcf7b" font-family="Verdana, sans-serif" font-size="26" font-weight="700" text-anchor="middle">EXO</text>
  </g>
  <g>
    <rect x="946" y="474" width="214" height="304" rx="34" fill="#1f102a" stroke="#ffcf7b" stroke-width="10" />
    <circle cx="1053" cy="560" r="68" fill="#c59cff" />
    <path d="M980 720c16-82 45-128 102-128 56 0 86 46 102 128" fill="#07111f" stroke="#ff8f57" stroke-width="10" />
    <path d="M1011 518c31-46 59-68 82-68 25 0 52 22 82 68" fill="none" stroke="#7de3f6" stroke-linecap="round" stroke-width="10" />
    <text x="1053" y="748" fill="#ffcf7b" font-family="Verdana, sans-serif" font-size="25" font-weight="700" text-anchor="middle">SHAMAN</text>
  </g>
  <text x="108" y="140" fill="#7de3f6" font-family="Verdana, sans-serif" font-size="48" font-weight="700">RETROZETRO COMICS</text>
  <text x="108" y="194" fill="#ffd27d" font-family="Verdana, sans-serif" font-size="26">Comics. Storyboards. Photo dispatches.</text>
</svg>
